<svg xmlns="http://www.w3.org/2000/svg" class="svg-logo" width="2400" height="2400" viewBox="0 0 630 430" style="height: auto;"><rect width="630" height="630" y="-100" rx="0" ry="0" fill="#ffffff" fill-opacity="1"></rect><g data-element="wrapper" transform="translate(-125.99997863769849 -102.23125000000229) scale(1.4000000000000101)"><g ><g data-element="icon" transform="scale(0.10810810810810811) translate(1611.7852493013627 1688.7498472758675)"><path id="color_x5F_1" d="M261.098,521.318h112.654l14.996,44.989c4.717,14.15-5.815,28.763-20.731,28.763H231.982    c-14.916,0-25.448-14.613-20.731-28.763l5.07-15.21C230.88,542.135,245.863,532.157,261.098,521.318z M253.209,496.734h0.391    c37.033-26.807,75.882-59.042,114.561-95.069c-4.273-8.368-6.7-17.829-6.7-27.852c0-33.89,27.57-61.46,61.46-61.46    s61.46,27.57,61.46,61.46s-27.57,61.46-61.46,61.46c-14.992,0-28.74-5.402-39.419-14.353    c-29.289,27.112-59.498,52.787-89.303,75.813h251.643c27.155,0,49.168-22.013,49.168-49.168v-295.01    c0-27.155-22.013-49.168-49.168-49.168H387.389c12.164-8.805,24.121-17.004,35.821-24.584c9.339-6.051,18.524-11.732,27.486-16.938    c69.962-40.634,107.206-42.786,118.749-31.251l-0.001,0.001c7.092,7.091,8.992,23.921-0.023,52.077    c7.954,2.692,15.3,6.702,21.782,11.776c12.252-35.815,12.339-64.524-4.375-81.237h-0.001    C562.119-11.482,514.086,2.145,469.84,23.732c-10.858,5.298-21.491,11.067-31.492,16.876c-31.278,18.167-64.952,41.505-99.551,68.75    c-29.849,22.082-60.755,47.529-91.728,75.575c9.967,10.928,16.054,25.454,16.054,41.375c0,33.89-27.57,61.46-61.46,61.46    c-33.89,0-61.46-27.57-61.46-61.46c0-33.89,27.57-61.46,61.46-61.46c8.928,0,17.408,1.929,25.07,5.367    c26.584-24.243,53.189-46.699,79.205-66.828H54.158c-27.155,0-49.168,22.013-49.168,49.168v295.01    c0,27.155,22.013,49.168,49.168,49.168h158.453c-12.164,8.805-24.121,17.004-35.821,24.584    c-9.339,6.051-18.524,11.732-27.486,16.938c-69.963,40.635-107.218,42.788-118.75,31.25c-7.092-7.091-8.992-23.922,0.023-52.077    c-7.954-2.692-15.3-6.702-21.782-11.776c-12.252,35.815-12.339,64.524,4.375,81.237C22.152,595.872,34.588,600,49.738,600    c18.074,0,40.027-5.933,64.515-16.477C155.384,565.813,203.722,534.968,253.209,496.734z M201.663,189.432    c-20.333,0-36.876,16.543-36.876,36.876c0,20.333,16.543,36.876,36.876,36.876c20.333,0,36.876-16.543,36.876-36.876    C238.54,205.975,221.997,189.432,201.663,189.432z M422.921,410.689c20.333,0,36.876-16.543,36.876-36.876    s-16.543-36.876-36.876-36.876c-20.333,0-36.876,16.543-36.876,36.876S402.587,410.689,422.921,410.689z" fill="#0b5cc3" fill-opacity="1"></path></g><path d="M272.13 204.77L280.58 204.77L274.18 219.42L281.60 236L273.03 236L267.14 223.01L264.58 223.01L264.58 236L256.00 236L256.00 194.59L264.58 194.59L264.58 215.97L267.46 215.97L272.13 204.77ZM293.76 194.59L293.76 236L285.19 236L285.19 194.59L293.76 194.59ZM307.46 204.13L314.69 204.13Q322.63 204.13 322.63 212.58L322.63 212.58L322.63 222.69L308.10 222.69L308.10 229.22Q308.10 229.73 308.45 230.11Q308.80 230.50 309.31 230.50L309.31 230.50L312.83 230.50Q313.35 230.50 313.70 230.11Q314.05 229.73 314.05 229.22L314.05 229.22L314.05 225.76L322.63 225.76L322.63 228.19Q322.63 236.64 314.69 236.64L314.69 236.64L307.46 236.64Q299.52 236.64 299.52 228.19L299.52 228.19L299.52 212.58Q299.52 204.13 307.46 204.13L307.46 204.13ZM308.10 211.30L308.10 217.06L314.05 217.06L314.05 211.30Q314.05 210.78 313.70 210.40Q313.35 210.02 312.83 210.02L312.83 210.02L309.31 210.02Q308.80 210.02 308.45 210.40Q308.10 210.78 308.10 211.30L308.10 211.30ZM354.95 204.13L355.52 204.13Q363.46 204.13 363.46 212.58L363.46 212.58L363.46 236L354.88 236L354.88 211.55Q354.88 211.04 354.53 210.66Q354.18 210.27 353.67 210.27L353.67 210.27L350.91 210.27Q350.40 210.27 350.05 210.66Q349.70 211.04 349.70 211.55L349.70 211.55L349.70 236L341.12 236L341.12 211.55Q341.12 211.04 340.77 210.66Q340.42 210.27 339.91 210.27L339.91 210.27L337.15 210.27Q336.64 210.27 336.29 210.66Q335.94 211.04 335.94 211.55L335.94 211.55L335.94 236L327.36 236L327.36 204.77L335.17 204.77L335.17 206.37Q337.15 204.13 341.19 204.13L341.19 204.13L341.76 204.13Q346.50 204.13 348.35 207.07L348.35 207.07Q350.34 204.13 354.95 204.13L354.95 204.13ZM397.25 204.13L397.83 204.13Q405.76 204.13 405.76 212.58L405.76 212.58L405.76 236L397.19 236L397.19 211.55Q397.19 211.04 396.83 210.66Q396.48 210.27 395.97 210.27L395.97 210.27L393.22 210.27Q392.71 210.27 392.35 210.66Q392.00 211.04 392.00 211.55L392.00 211.55L392.00 236L383.43 236L383.43 211.55Q383.43 211.04 383.07 210.66Q382.72 210.27 382.21 210.27L382.21 210.27L379.46 210.27Q378.95 210.27 378.59 210.66Q378.24 211.04 378.24 211.55L378.24 211.55L378.24 236L369.67 236L369.67 204.77L377.47 204.77L377.47 206.37Q379.46 204.13 383.49 204.13L383.49 204.13L384.07 204.13Q388.80 204.13 390.66 207.07L390.66 207.07Q392.64 204.13 397.25 204.13L397.25 204.13ZM419.91 204.13L427.14 204.13Q435.07 204.13 435.07 212.58L435.07 212.58L435.07 222.69L420.55 222.69L420.55 229.22Q420.55 229.73 420.90 230.11Q421.25 230.50 421.76 230.50L421.76 230.50L425.28 230.50Q425.79 230.50 426.15 230.11Q426.50 229.73 426.50 229.22L426.50 229.22L426.50 225.76L435.07 225.76L435.07 228.19Q435.07 236.64 427.14 236.64L427.14 236.64L419.91 236.64Q411.97 236.64 411.97 228.19L411.97 228.19L411.97 212.58Q411.97 204.13 419.91 204.13L419.91 204.13ZM420.55 211.30L420.55 217.06L426.50 217.06L426.50 211.30Q426.50 210.78 426.15 210.40Q425.79 210.02 425.28 210.02L425.28 210.02L421.76 210.02Q421.25 210.02 420.90 210.40Q420.55 210.78 420.55 211.30L420.55 211.30ZM453.12 204.13L453.12 204.13L454.79 204.13L454.79 212.45L450.56 212.45Q448.39 212.45 448.39 214.69L448.39 214.69L448.39 236L439.81 236L439.81 204.77L447.62 204.77L447.62 207.78Q449.47 204.13 453.12 204.13Z" data-element="company-name" data-text-path="" data-text="klemmer" data-font-family="Squada One" fill="#0b5cc3" fill-opacity="1"></path><path d="M267.51 254.48L281.02 254.48Q282.49 254.48 283.51 255.51Q284.53 256.53 284.53 257.97L284.53 257.97L284.53 271.19L270.99 271.19Q269.55 271.19 268.53 270.17Q267.51 269.14 267.51 267.70L267.51 267.70L267.51 261.65L282.14 261.65L282.14 257.97Q282.14 257.51 281.81 257.18Q281.48 256.85 281.02 256.85L281.02 256.85L267.51 256.85L267.51 254.48ZM270.99 268.83L282.14 268.83L282.14 264.02L269.87 264.02L269.87 267.70Q269.87 268.16 270.20 268.49Q270.53 268.83 270.99 268.83L270.99 268.83ZM287.55 254.48L301.09 254.48Q302.53 254.48 303.55 255.51Q304.58 256.53 304.58 257.97L304.58 257.97L304.58 267.70Q304.58 269.14 303.55 270.17Q302.53 271.19 301.09 271.19L301.09 271.19L289.92 271.19L289.92 277.81L287.55 277.81L287.55 254.48ZM302.21 267.70L302.21 267.70L302.21 257.97Q302.21 257.51 301.88 257.18Q301.55 256.85 301.09 256.85L301.09 256.85L291.07 256.85Q290.61 256.85 290.26 257.18Q289.92 257.51 289.92 257.97L289.92 257.97L289.92 267.70Q289.92 268.16 290.26 268.49Q290.61 268.83 291.07 268.83L291.07 268.83L301.09 268.83Q301.55 268.83 301.88 268.49Q302.21 268.16 302.21 267.70ZM306.68 254.48L320.21 254.48Q321.65 254.48 322.68 255.51Q323.70 256.53 323.70 257.97L323.70 257.97L323.70 267.70Q323.70 269.14 322.68 270.17Q321.65 271.19 320.21 271.19L320.21 271.19L309.04 271.19L309.04 277.81L306.68 277.81L306.68 254.48ZM321.34 267.70L321.34 267.70L321.34 257.97Q321.34 257.51 321.01 257.18Q320.67 256.85 320.21 256.85L320.21 256.85L310.19 256.85Q309.73 256.85 309.38 257.18Q309.04 257.51 309.04 257.97L309.04 257.97L309.04 267.70Q309.04 268.16 309.38 268.49Q309.73 268.83 310.19 268.83L310.19 268.83L320.21 268.83Q320.67 268.83 321.01 268.49Q321.34 268.16 321.34 267.70ZM325.74 267.70L325.74 249.01L328.10 249.01L328.10 267.70Q328.10 268.16 328.44 268.49Q328.77 268.83 329.23 268.83L329.23 268.83L332.05 268.83L332.05 271.19L329.23 271.19Q327.79 271.19 326.77 270.17Q325.74 269.14 325.74 267.70L325.74 267.70ZM336.80 271.19L334.44 271.19L334.44 254.48L336.80 254.48L336.80 271.19ZM334.44 251.37L334.44 249.01L336.80 249.01L336.80 251.37L334.44 251.37ZM343.46 268.83L343.46 268.83L356.99 268.83L356.99 271.19L343.46 271.19Q342.02 271.19 340.99 270.17Q339.97 269.14 339.97 267.70L339.97 267.70L339.97 257.97Q339.97 256.53 340.99 255.51Q342.02 254.48 343.46 254.48L343.46 254.48L356.93 254.48L356.93 256.85L343.46 256.85Q342.99 256.85 342.66 257.18Q342.33 257.51 342.33 257.97L342.33 257.97L342.33 267.70Q342.33 268.16 342.66 268.49Q342.99 268.83 343.46 268.83ZM360.02 254.48L373.52 254.48Q374.99 254.48 376.01 255.51Q377.04 256.53 377.04 257.97L377.04 257.97L377.04 271.19L363.50 271.19Q362.06 271.19 361.04 270.17Q360.02 269.14 360.02 267.70L360.02 267.70L360.02 261.65L374.65 261.65L374.65 257.97Q374.65 257.51 374.31 257.18Q373.98 256.85 373.52 256.85L373.52 256.85L360.02 256.85L360.02 254.48ZM363.50 268.83L374.65 268.83L374.65 264.02L362.38 264.02L362.38 267.70Q362.38 268.16 362.71 268.49Q363.04 268.83 363.50 268.83L363.50 268.83ZM389.62 254.48L389.62 256.85L382.39 256.85L382.39 267.70Q382.39 268.16 382.72 268.49Q383.06 268.83 383.52 268.83L383.52 268.83L389.62 268.83L389.62 271.19L383.52 271.19Q382.05 271.19 381.04 270.17Q380.03 269.14 380.03 267.70L380.03 267.70L380.03 249.01L382.39 249.01L382.39 254.48L389.62 254.48ZM394.32 271.19L391.95 271.19L391.95 254.48L394.32 254.48L394.32 271.19ZM391.95 251.37L391.95 249.01L394.32 249.01L394.32 251.37L391.95 251.37ZM401.40 254.48L401.40 254.48L411.42 254.48Q412.89 254.48 413.91 255.51Q414.94 256.53 414.94 257.97L414.94 257.97L414.94 267.70Q414.94 269.14 413.91 270.17Q412.89 271.19 411.42 271.19L411.42 271.19L401.40 271.19Q399.96 271.19 398.94 270.17Q397.92 269.14 397.92 267.70L397.92 267.70L397.92 257.97Q397.92 256.53 398.94 255.51Q399.96 254.48 401.40 254.48ZM411.42 256.85L411.42 256.85L401.40 256.85Q400.94 256.85 400.61 257.18Q400.28 257.51 400.28 257.97L400.28 257.97L400.28 267.70Q400.28 268.16 400.61 268.49Q400.94 268.83 401.40 268.83L401.40 268.83L411.42 268.83Q411.88 268.83 412.22 268.49Q412.55 268.16 412.55 267.70L412.55 267.70L412.55 257.97Q412.55 257.51 412.22 257.18Q411.88 256.85 411.42 256.85ZM417.50 254.48L431.04 254.48Q432.48 254.48 433.50 255.51Q434.52 256.53 434.52 257.97L434.52 257.97L434.52 271.19L432.16 271.19L432.16 257.97Q432.16 257.51 431.83 257.18Q431.50 256.85 431.04 256.85L431.04 256.85L421.01 256.85Q420.55 256.85 420.21 257.18Q419.86 257.51 419.86 257.97L419.86 257.97L419.86 271.19L417.50 271.19L417.50 254.48ZM454.39 257.97L454.39 257.97L454.39 258.20L452.00 258.20L452.00 257.97Q452.00 257.51 451.67 257.18Q451.34 256.85 450.88 256.85L450.88 256.85L440.86 256.85Q440.40 256.85 440.06 257.18Q439.73 257.51 439.73 257.97L439.73 257.97L439.73 260.53Q439.73 260.99 440.06 261.32Q440.40 261.65 440.86 261.65L440.86 261.65L450.88 261.65Q452.35 261.65 453.37 262.68Q454.39 263.70 454.39 265.14L454.39 265.14L454.39 267.70Q454.39 269.14 453.37 270.17Q452.35 271.19 450.88 271.19L450.88 271.19L440.86 271.19Q439.42 271.19 438.39 270.17Q437.37 269.14 437.37 267.70L437.37 267.70L437.37 267.47L439.73 267.47L439.73 267.70Q439.73 268.16 440.06 268.49Q440.40 268.83 440.86 268.83L440.86 268.83L450.88 268.83Q451.34 268.83 451.67 268.49Q452.00 268.16 452.00 267.70L452.00 267.70L452.00 265.14Q452.00 264.68 451.67 264.35Q451.34 264.02 450.88 264.02L450.88 264.02L440.86 264.02Q439.42 264.02 438.39 262.99Q437.37 261.97 437.37 260.53L437.37 260.53L437.37 257.97Q437.37 256.53 438.39 255.51Q439.42 254.48 440.86 254.48L440.86 254.48L450.88 254.48Q452.35 254.48 453.37 255.51Q454.39 256.53 454.39 257.97Z" data-element="slogan" data-text-path="" data-text="applications" data-font-family="Orbitron" fill="#0b5cc3" fill-opacity="1"></path></g></g></svg>