<?xml version="1.0" standalone="no"?>
<!DOCTYPE svg PUBLIC "-//W3C//DTD SVG 20010904//EN"
 "http://www.w3.org/TR/2001/REC-SVG-20010904/DTD/svg10.dtd">
<svg version="1.0" xmlns="http://www.w3.org/2000/svg"
 width="700.000000pt" height="700.000000pt" viewBox="0 0 700.000000 700.000000"
 preserveAspectRatio="xMidYMid meet">
<metadata>
Created by potrace 1.14, written by Peter Selinger 2001-2017
</metadata>
<g transform="translate(0.000000,700.000000) scale(0.100000,-0.100000)"
fill="#000000" stroke="none">
<path d="M2163 4170 c-26 -9 -64 -25 -83 -35 -41 -21 -168 -105 -202 -133 -12
-11 -51 -43 -86 -72 -47 -39 -62 -56 -56 -68 40 -94 -26 -180 -116 -153 -58
17 -82 69 -64 137 8 30 77 67 112 60 21 -5 35 1 65 29 22 19 51 44 65 55 l27
19 -228 1 -228 0 -24 -25 c-19 -18 -25 -35 -26 -67 0 -24 0 -151 0 -283 l0
-240 28 -22 c26 -21 38 -23 172 -23 l145 0 -40 -29 c-49 -36 -148 -86 -196
-99 -54 -15 -79 6 -72 57 4 30 2 40 -12 45 -22 8 -24 6 -31 -38 -7 -47 12 -93
45 -104 80 -26 234 50 452 224 104 82 120 101 113 135 -11 57 41 119 102 119
81 0 127 -115 70 -173 -29 -29 -69 -39 -103 -26 -36 14 -44 11 -87 -27 -22
-20 -53 -47 -70 -60 l-30 -24 228 0 228 0 24 25 25 24 0 279 c0 260 -1 281
-19 303 -18 23 -26 24 -172 29 l-154 5 50 32 c91 58 155 86 205 91 55 5 54 5
52 -65 -1 -20 5 -33 15 -37 21 -8 23 -5 30 38 15 92 -50 133 -154 96z"/>
<path d="M2582 3676 l3 -321 54 -2 c30 -1 60 2 66 7 6 5 10 42 10 92 -1 79 6
108 27 108 5 0 31 -47 58 -104 l49 -104 65 0 65 1 -15 36 c-9 20 -19 45 -24
56 -4 11 -22 50 -39 88 -17 37 -31 71 -31 76 0 9 61 155 85 204 l13 27 -68 0
c-67 0 -68 0 -80 -32 -30 -77 -60 -137 -70 -143 -27 -17 -34 17 -35 173 l0
157 -68 1 -67 2 2 -322z"/>
<path d="M3039 3992 c-4 -30 -3 -625 1 -631 3 -4 33 -8 68 -8 l62 -1 0 323 0
323 -65 1 c-36 0 -65 -3 -66 -7z"/>
<path d="M1611 3849 c-29 -27 -28 -74 3 -94 29 -19 72 -11 86 15 34 64 -38
126 -89 79z"/>
<path d="M3330 3841 c-14 -4 -35 -22 -48 -41 -22 -32 -23 -42 -22 -202 1 -92
4 -177 7 -188 3 -11 19 -30 36 -42 27 -19 44 -22 133 -22 68 -1 110 4 127 13
32 17 57 67 57 115 0 37 -2 39 -65 39 -70 0 -75 -2 -71 -27 6 -32 -15 -48 -56
-44 -33 3 -33 3 -33 58 l0 55 113 3 113 3 -2 97 c-2 165 -28 193 -176 191 -48
-1 -99 -4 -113 -8z m148 -99 c10 -20 10 -72 0 -87 -4 -6 -25 -9 -48 -7 l-41 4
2 42 c3 59 6 63 44 64 24 1 37 -4 43 -16z"/>
<path d="M3843 3835 c-18 -8 -33 -10 -33 -5 0 6 -27 10 -60 10 l-60 0 2 -242
3 -243 55 -1 c30 -1 60 1 66 3 7 2 10 69 10 195 -1 179 0 191 18 198 11 3 29
5 41 3 21 -5 21 -8 21 -201 l0 -197 67 -1 67 0 0 192 c0 205 1 208 50 208 l25
0 3 -201 2 -200 63 2 c34 1 64 3 67 4 3 0 5 93 4 206 0 190 -2 207 -21 233
-11 15 -31 33 -44 40 -33 18 -123 10 -148 -12 -19 -17 -21 -17 -50 3 -34 25
-99 27 -148 6z"/>
<path d="M4503 3835 c-18 -8 -33 -10 -33 -5 0 6 -27 10 -60 10 l-60 0 0 -243
0 -243 63 2 c34 0 64 2 67 3 3 0 5 87 4 192 0 183 1 191 20 199 25 9 56 2 57
-14 1 -6 2 -90 4 -186 1 -96 3 -181 4 -187 1 -9 21 -12 66 -10 l65 2 0 197 c0
214 -1 210 57 200 23 -4 23 -5 22 -194 0 -104 2 -193 6 -196 4 -4 33 -7 66 -7
l59 -1 1 51 c2 166 -3 359 -10 378 -5 12 -19 31 -31 42 -31 28 -126 31 -165 5
-27 -18 -28 -18 -59 1 -36 22 -98 24 -143 4z"/>
<path d="M5084 3843 c-12 -2 -32 -15 -45 -29 -23 -25 -24 -32 -27 -207 -2
-167 -1 -185 17 -214 13 -20 33 -35 53 -41 51 -13 210 -7 236 9 27 17 55 85
50 124 -3 26 -6 28 -53 27 -79 0 -86 -1 -84 -14 6 -51 0 -59 -43 -56 l-43 3
-2 58 -1 57 114 0 114 0 -1 93 c-1 168 -28 198 -179 196 -47 -1 -95 -4 -106
-6z m147 -108 c4 -87 7 -80 -43 -83 l-45 -3 -1 48 c-1 53 4 59 53 61 31 1 35
-2 36 -23z"/>
<path d="M5610 3843 c-8 -3 -19 -12 -23 -19 -11 -19 -27 -18 -27 1 0 12 -13
15 -60 15 l-60 0 2 -242 3 -243 65 0 65 0 0 172 c0 101 4 176 10 182 6 5 28
11 50 13 l40 3 0 60 c0 57 -1 60 -25 62 -14 1 -32 -1 -40 -4z"/>
<path d="M1993 3610 c-43 -17 -42 -88 1 -108 71 -32 126 71 57 107 -23 13 -28
13 -58 1z"/>
<path d="M1713 3285 c-24 -15 -44 -34 -44 -43 -2 -28 2 -47 12 -53 8 -4 246
-5 270 0 15 3 17 31 5 72 l-13 44 -94 3 c-86 2 -98 0 -136 -23z"/>
<path d="M3669 3143 c-7 -55 1 -306 10 -317 14 -16 65 -26 83 -15 18 11 -8 39
-33 34 -23 -5 -21 -15 -23 160 -1 124 -3 140 -19 143 -9 2 -17 0 -18 -5z"/>
<path d="M3802 3133 c2 -10 10 -18 18 -18 8 0 16 8 18 18 2 12 -3 17 -18 17
-15 0 -20 -5 -18 -17z"/>
<path d="M4510 2998 c0 -84 4 -158 8 -164 13 -20 46 -30 92 -30 37 1 45 4 48
21 3 19 -3 21 -50 20 l-53 0 -3 93 -3 92 56 0 c47 0 55 3 55 18 0 16 -8 18
-52 18 l-53 -1 -3 43 c-3 34 -7 42 -23 42 -18 0 -19 -8 -19 -152z"/>
<path d="M4700 3129 c9 -16 14 -18 26 -8 21 17 17 29 -11 29 -23 0 -24 -2 -15
-21z"/>
<path d="M2760 3048 c0 -15 12 -18 113 -20 l112 -3 0 -35 0 -35 -110 0 -110 0
-3 -34 c-6 -57 6 -97 31 -107 12 -5 69 -9 127 -9 l105 0 1 114 c1 148 3 146
-151 147 -104 0 -115 -2 -115 -18z m230 -167 l0 -38 -92 1 -93 1 -5 36 -6 35
98 1 98 1 0 -37z"/>
<path d="M3076 3061 c-2 -3 -3 -85 -2 -181 1 -158 3 -175 19 -178 14 -3 17 4
17 50 l0 54 102 0 c126 1 128 3 128 129 0 129 0 129 -144 131 -64 0 -118 -2
-120 -5z m219 -126 l0 -90 -80 -1 c-44 0 -86 1 -92 4 -14 5 -19 163 -6 176 4
4 46 5 93 4 l85 -3 0 -90z"/>
<path d="M3370 2885 c0 -173 1 -181 20 -182 16 -1 19 4 18 30 -2 77 -8 73 99
73 124 1 130 7 127 125 -3 118 -2 116 -21 125 -10 4 -69 8 -130 9 l-113 1 0
-181z m227 53 c1 -74 -1 -88 -15 -92 -25 -6 -159 -2 -167 6 -6 6 -8 55 -6 146
l1 33 93 -3 92 -3 2 -87z"/>
<path d="M3807 3063 c-2 -4 -4 -63 -4 -130 -1 -111 1 -122 19 -126 18 -5 18 1
16 126 -2 88 -7 132 -15 134 -6 2 -13 0 -16 -4z"/>
<path d="M3909 3052 c-17 -11 -19 -26 -19 -116 0 -80 3 -106 15 -116 10 -8 54
-13 126 -14 106 -1 131 2 131 19 0 16 -24 20 -119 19 -54 -1 -103 2 -108 7 -8
6 -12 130 -6 172 0 4 51 7 111 7 101 0 110 2 110 19 0 17 -9 18 -111 18 -76
-1 -117 -5 -130 -15z"/>
<path d="M4205 3062 c-3 -3 -5 -11 -5 -18 0 -10 28 -14 113 -16 l112 -3 3 -35
3 -35 -116 0 -115 0 0 -55 c0 -89 7 -93 146 -94 l119 0 -1 118 c0 106 -2 119
-20 130 -18 11 -229 18 -239 8z m223 -181 l-4 -36 -88 0 c-48 0 -90 4 -93 9
-10 15 -9 51 1 58 5 3 50 6 98 6 l89 -1 -3 -36z"/>
<path d="M4704 3058 c-5 -7 -9 -67 -8 -132 0 -104 3 -120 17 -122 9 -1 17 1
18 4 3 27 4 240 1 250 -2 6 -8 12 -12 12 -4 0 -12 -6 -16 -12z"/>
<path d="M4808 3048 c-15 -15 -18 -35 -18 -110 1 -127 3 -129 126 -132 133 -3
138 1 138 127 1 131 -4 135 -132 134 -78 -1 -100 -5 -114 -19z m209 -98 c2
-112 6 -107 -91 -106 -47 1 -87 4 -91 7 -5 6 -9 98 -6 157 1 22 3 23 94 20
l92 -3 2 -75z"/>
<path d="M5099 3061 c-5 -24 -4 -253 1 -256 21 -13 29 20 32 115 l3 105 93 3
92 3 1 -28 c1 -15 1 -62 1 -103 -1 -89 2 -102 23 -94 12 5 15 26 15 113 0 148
2 146 -144 147 -64 1 -117 -2 -117 -5z"/>
<path d="M5421 3048 c-9 -10 -17 -36 -18 -57 -2 -60 17 -71 128 -74 l94 -2 3
-32 c2 -23 -1 -32 -15 -36 -34 -9 -160 -2 -174 10 -8 7 -20 8 -27 4 -10 -6 -8
-13 6 -31 17 -21 28 -24 103 -25 86 -2 128 7 141 28 13 21 9 85 -8 101 -19 19
-10 18 -114 21 -47 1 -89 3 -93 4 -5 0 -7 16 -5 34 l3 32 84 3 c49 2 88 -1 95
-8 12 -12 46 -14 46 -2 0 5 -6 17 -14 28 -12 16 -28 19 -117 20 -88 1 -104 -2
-118 -18z"/>
</g>
</svg>
